<?xml version="1.0" encoding="UTF-8"?>
<svg version="1.1" xmlns="http://www.w3.org/2000/svg" width="50" height="50">
<path d="M0 0 C-0.61778778 5.16275971 -2.22671573 9.46660511 -4.23828125 14.20703125 C-4.7213398 15.35603157 -4.7213398 15.35603157 -5.2141571 16.52824402 C-5.89402136 18.13744054 -6.57750484 19.74511228 -7.2644043 21.35131836 C-8.3138814 23.81574387 -9.33977334 26.28917381 -10.36523438 28.76367188 C-11.029827 30.32873003 -11.69579506 31.89320499 -12.36328125 33.45703125 C-12.66760574 34.19862991 -12.97193024 34.94022858 -13.28547668 35.70429993 C-14.18481445 37.76879883 -14.18481445 37.76879883 -16 41 C-18.1134491 41.70195007 -18.1134491 41.70195007 -20 42 C-20.41507813 40.99839844 -20.83015625 39.99679688 -21.2578125 38.96484375 C-25.51907222 29.51343613 -29.55391676 24.9095941 -39.21875 21.00390625 C-40.1365625 20.67261719 -41.054375 20.34132813 -42 20 C-41.71540833 18.12017822 -41.71540833 18.12017822 -41 16 C-38.31413212 14.50153039 -35.77405841 13.2845842 -32.94921875 12.109375 C-32.13886673 11.75989807 -31.32851471 11.41042114 -30.49360657 11.050354 C-28.77750332 10.31388355 -27.05825033 9.58471628 -25.33618164 8.86230469 C-22.70155246 7.75590128 -20.07794206 6.62615929 -17.45507812 5.4921875 C-15.78705706 4.77984638 -14.11845525 4.0688633 -12.44921875 3.359375 C-11.66367111 3.02194275 -10.87812347 2.6845105 -10.06877136 2.33685303 C-9.33153336 2.02943176 -8.59429535 1.7220105 -7.8347168 1.40527344 C-7.18931442 1.13309998 -6.54391205 0.86092651 -5.87895203 0.58050537 C-4 0 -4 0 0 0 Z M-12 7 C-14.65611136 7.90561412 -14.65611136 7.90561412 -17.6640625 9.30859375 C-19.34628906 10.05786133 -19.34628906 10.05786133 -21.0625 10.82226562 C-22.238125 11.35529297 -23.41375 11.88832031 -24.625 12.4375 C-25.80835938 12.96666016 -26.99171875 13.49582031 -28.2109375 14.04101562 C-31.14383183 15.35372236 -34.07325581 16.67365131 -37 18 C-33.40325684 21.02126426 -30.66894445 21.99902381 -26 24 C-20.72 18.72 -15.44 13.44 -10 8 C-10.66 7.67 -11.32 7.34 -12 7 Z M-8 10 C-13.28 15.28 -18.56 20.56 -24 26 C-22.35 29.63 -20.7 33.26 -19 37 C-15.51701549 32.35602065 -13.51250024 27.6850952 -11.25 22.375 C-10.82589844 21.40820312 -10.40179688 20.44140625 -9.96484375 19.4453125 C-9.56910156 18.52234375 -9.17335938 17.599375 -8.765625 16.6484375 C-8.40243164 15.80458496 -8.03923828 14.96073242 -7.66503906 14.09130859 C-6.72349217 11.97198439 -6.72349217 11.97198439 -8 10 Z " fill="#FFFFFF" transform="translate(46,4)"/>
</svg>
